<?xml version="1.0" standalone="no"?>
<!DOCTYPE svg PUBLIC "-//W3C//DTD SVG 1.1//EN"
  "http://www.w3.org/Graphics/SVG/1.1/DTD/svg11.dtd">
<svg width="207.9116668701172mm" height="303.99999999999994mm" viewBox="-108.91166687011719 -157.99999999999997 207.9116668701172 303.99999999999994" xmlns="http://www.w3.org/2000/svg" version="1.1">
	<title>svgOutput</title>
	<desc>made with tinkercad</desc>
<path d="M 98 -86.00299835205077 L 94.99800109863281 -86.00299835205077 L 94.99800109863281 -65.9980010986328 L 98 -65.9980010986328 L 98 -46.002998352050774 L 94.99800109863281 -46.002998352050774 L 94.99800109863281 -25.997999191284173 L 98 -25.997999191284173 L 98 -5.999999999999998 L 94.99800109863281 -5.999999999999998 L 84.50299835205078 -5.999999999999998 L 83.00299835205078 -5.999999999999998 L 83.00299835205078 -9.003000259399412 L 81.49800109863281 -9.003000259399412 L 79.50299835205078 -9.003000259399412 L 76.49800109863281 -9.003000259399412 L 74.50299835205078 -9.003000259399412 L 71.49800109863281 -9.003000259399412 L 69.50299835205078 -9.003000259399412 L 66.49800109863281 -9.003000259399412 L 62.99800109863281 -9.003000259399412 L 62.99800109863281 -5.999999999999998 L 51.00299835205078 -5.999999999999998 L 48 -5.999999999999998 L 48 -25.997999191284173 L 51.00299835205078 -25.997999191284173 L 51.00299835205078 -46.002998352050774 L 48 -46.002998352050774 L 48 -65.9980010986328 L 51.00299835205078 -65.9980010986328 L 51.00299835205078 -86.00299835205077 L 48 -86.00299835205077 L 48 -105.99999999999997 L 51.00299835205078 -105.99999999999997 L 62.99800109863281 -105.99999999999997 L 62.99800109863281 -102.99800109863278 L 66.49800109863281 -102.99800109863278 L 69.50299835205078 -102.99800109863278 L 71.49800109863281 -102.99800109863278 L 74.50299835205078 -102.99800109863278 L 76.49800109863281 -102.99800109863278 L 79.50299835205078 -102.99800109863278 L 81.49800109863281 -102.99800109863278 L 83.00299835205078 -102.99800109863278 L 83.00299835205078 -105.99999999999997 L 84.50299835205078 -105.99999999999997 L 94.99800109863281 -105.99999999999997 L 98 -105.99999999999997 L 98 -86.00299835205077 M -79.2958984375 -16.77655220031738 L -79.2958984375 -16.57687377929687 L -79.2958984375 -15.998000144958493 L -79.2958984375 -9.003000259399412 L -92.95800018310547 -9.003000259399412 L -92.95800018310547 -5.999999999999998 L -104.9530029296875 -5.999999999999998 L -107.91166687011719 -5.999999999999998 L -107.91166687011719 -25.997999191284173 L -104.9530029296875 -25.997999191284173 L -104.9530029296875 -46.002998352050774 L -107.91166687011719 -46.002998352050774 L -107.91166687011719 -65.9980010986328 L -104.9530029296875 -65.9980010986328 L -104.9530029296875 -86.00299835205077 L -107.91166687011719 -86.00299835205077 L -107.91166687011719 -105.99999999999997 L -104.9530029296875 -105.99999999999997 L -92.95800018310547 -105.99999999999997 L -92.95800018310547 -102.99800109863278 L -79.2958984375 -102.99800109863278 L -79.2958984375 -82.00299835205077 L -89.95800018310547 -82.00299835205077 L -89.95800018310547 -69.9980010986328 L -79.2958984375 -69.9980010986328 L -79.2958984375 -36.002998352050774 L -79.2958984375 -35.22344589233398 L -79.86399841308594 -35.51300048828124 L -82.95500183105469 -36.002998352050774 L -86.0459976196289 -35.51300048828124 L -88.83499908447266 -34.09199905395507 L -90.15840148925781 -32.76800155639648 L -91.0469970703125 -31.878999710083 L -92.46800231933594 -29.090999603271477 L -92.95800018310547 -25.999999999999993 L -92.46800231933594 -22.909000396728512 L -91.0469970703125 -20.12100028991699 L -88.83499908447266 -17.90800094604492 L -86.0459976196289 -16.486999511718746 L -82.95500183105469 -15.998000144958493 L -81.91999816894531 -16.161737442016598 L -79.86399841308594 -16.486999511718746 L -79.2958984375 -16.77655220031738 M 47 84.9980010986328 L 43.99800109863281 84.9980010986328 L 43.99800109863281 87.90299987792967 L 43.99800109863281 88.30300140380858 L 43.99800109863281 105.00299835205075 L 47 105.00299835205075 L 47 107.00299835205075 L 47 113.10299682617185 L 47 124.99800109863278 L 43.99800109863281 124.99800109863278 L 43.99800109863281 141.99800109863278 L 43.99800109863281 144.99999999999997 L 27.003000259399414 144.99999999999997 L 27.003000259399414 141.99800109863278 L 6.998000144958496 141.99800109863278 L 6.998000144958496 144.99999999999997 L -4.302999973297119 144.99999999999997 L -12.998000144958496 144.99999999999997 L -12.998000144958496 141.99800109863278 L -15.003000259399414 141.99800109863278 L -19.10300064086914 141.99800109863278 L -33.00299835205078 141.99800109863278 L -33.00299835205078 144.99999999999997 L -49.99800109863281 144.99999999999997 L -49.99800109863281 141.99800109863278 L -49.99800109863281 124.99800109863278 L -53 124.99800109863278 L -53 105.00299835205075 L -49.99800109863281 105.00299835205075 L -49.99800109863281 84.9980010986328 L -53 84.9980010986328 L -53 65.00299835205077 L -49.99800109863281 65.00299835205077 L -49.99800109863281 48.00299835205077 L -49.99800109863281 44.99999999999999 L -33.00299835205078 44.99999999999999 L -33.00299835205078 48.00299835205077 L -19.10300064086914 48.00299835205077 L -16.097999572753906 48.00299835205077 L -15.003000259399414 48.00299835205077 L -12.998000144958496 48.00299835205077 L -12.998000144958496 44.99999999999999 L 6.998000144958496 44.99999999999999 L 6.998000144958496 48.00299835205077 L 9.003000259399414 48.00299835205077 L 9.79800033569336 48.00299835205077 L 12.803000450134277 48.00299835205077 L 27.003000259399414 48.00299835205077 L 27.003000259399414 44.99999999999999 L 43.99800109863281 44.99999999999999 L 43.99800109863281 48.00299835205077 L 43.99800109863281 65.00299835205077 L 47 65.00299835205077 L 47 84.9980010986328 M 43.99800109863281 -105.99999999999997 L 43.99800109863281 -102.99800109863278 L 43.99800109863281 -85.9980010986328 L 47 -85.9980010986328 L 47 -66.00299835205077 L 43.99800109863281 -66.00299835205077 L 43.99800109863281 -45.998001098632805 L 47 -45.998001098632805 L 47 -26.003000259399407 L 43.99800109863281 -26.003000259399407 L 43.99800109863281 -9.003000259399412 L 43.99800109863281 -5.999999999999998 L 27.003000259399414 -5.999999999999998 L 27.003000259399414 -9.003000259399412 L 7.000999927520752 -9.003000259399412 L 7.000999927520752 -5.999999999999998 L -13.00100040435791 -5.999999999999998 L -13.00100040435791 -9.003000259399412 L -33.00299835205078 -9.003000259399412 L -33.00299835205078 -5.999999999999998 L -43.00299835205078 -5.999999999999998 L -49.99800109863281 -5.999999999999998 L -49.99800109863281 -9.003000259399412 L -49.99800109863281 -26.003000259399407 L -53 -26.003000259399407 L -53 -45.998001098632805 L -49.99800109863281 -45.998001098632805 L -49.99800109863281 -66.00299835205077 L -53 -66.00299835205077 L -53 -85.9980010986328 L -49.99800109863281 -85.9980010986328 L -49.99800109863281 -102.99800109863278 L -49.99800109863281 -105.99999999999997 L -33.00299835205078 -105.99999999999997 L -33.00299835205078 -102.99800109863278 L -12.998000144958496 -102.99800109863278 L -12.998000144958496 -105.99999999999997 L 6.998000144958496 -105.99999999999997 L 6.998000144958496 -102.99800109863278 L 27.003000259399414 -102.99800109863278 L 27.003000259399414 -105.99999999999997 L 43.99800109863281 -105.99999999999997 M -13.003000259399414 -156.99999999999997 L -13.003000259399414 -153.99800109863278 L 7.002999782562256 -153.99800109863278 L 7.002999782562256 -156.99999999999997 L 26.99799919128418 -156.99999999999997 L 26.99799919128418 -153.99800109863278 L 43.99800109863281 -153.99800109863278 L 43.99800109863281 -141.99800109863278 L 47 -141.99800109863278 L 47 -122.00299835205075 L 43.99800109863281 -122.00299835205075 L 43.99800109863281 -110.00299835205075 L 26.99799919128418 -110.00299835205075 L 26.99799919128418 -106.99999999999997 L 7.002999782562256 -106.99999999999997 L 7.002999782562256 -110.00299835205075 L -13.003000259399414 -110.00299835205075 L -13.003000259399414 -106.99999999999997 L -32.99800109863281 -106.99999999999997 L -32.99800109863281 -110.00299835205075 L -49.99800109863281 -110.00299835205075 L -49.99800109863281 -122.00299835205075 L -53 -122.00299835205075 L -53 -141.99800109863278 L -49.99800109863281 -141.99800109863278 L -49.99800109863281 -153.99800109863278 L -32.99800109863281 -153.99800109863278 L -32.99800109863281 -156.99999999999997 L -13.003000259399414 -156.99999999999997 M -32.99800109863281 -5.999999999999998 L -13.003000259399414 -5.999999999999998 L -13.003000259399414 -2.9979999065399165 L 7.002999782562256 -2.9979999065399165 L 7.002999782562256 -5.999999999999998 L 26.99799919128418 -5.999999999999998 L 26.99799919128418 -2.9979999065399165 L 43.99800109863281 -2.9979999065399165 L 43.99800109863281 9.003000259399412 L 47 9.003000259399412 L 47 14.00300025939941 L 47 28.997999191284173 L 43.99800109863281 28.997999191284173 L 43.99800109863281 40.998001098632805 L 26.99799919128418 40.998001098632805 L 26.99799919128418 43.99999999999999 L 7.002999782562256 43.99999999999999 L 7.002999782562256 40.998001098632805 L -13.003000259399414 40.998001098632805 L -13.003000259399414 43.99999999999999 L -32.99800109863281 43.99999999999999 L -32.99800109863281 40.998001098632805 L -43.00299835205078 40.998001098632805 L -49.99800109863281 40.998001098632805 L -49.99800109863281 28.997999191284173 L -53 28.997999191284173 L -53 9.003000259399412 L -49.99800109863281 9.003000259399412 L -49.99800109863281 -2.9979999065399165 L -43.00299835205078 -2.9979999065399165 L -32.99800109863281 -2.9979999065399165 L -32.99800109863281 -5.999999999999998 M -18.06399917602539 88.22899627685545 L -17.600000381469727 88.30300140380858 L -17.13599967956543 88.22899627685545 L -16.716999053955078 88.01599884033202 L -16.384000778198242 87.68299865722655 L -16.17099952697754 87.26399993896483 L -16.097999572753906 86.8000030517578 L -16.17099952697754 86.33599853515624 L -16.33367347717285 86.01599884033202 L -16.384000778198242 85.91699981689452 L -16.716999053955078 85.58399963378905 L -17.13599967956543 85.37100219726561 L -17.600000381469727 85.29799652099608 L -18.06399917602539 85.37100219726561 L -18.482999801635742 85.58399963378905 L -18.81599998474121 85.91699981689452 L -18.8663272857666 86.01599884033202 L -19.02899932861328 86.33599853515624 L -19.10300064086914 86.8000030517578 L -19.02899932861328 87.26399993896483 L -18.81599998474121 87.68299865722655 L -18.482999801635742 88.01599884033202 L -18.06399917602539 88.22899627685545 M 10.836000442504883 87.82900238037108 L 11.300000190734863 87.90299987792967 L 11.763999938964844 87.82900238037108 L 12.182999610900879 87.61599731445311 L 12.515999794006348 87.28299713134764 L 12.729000091552734 86.86399841308592 L 12.803000450134277 86.40000152587889 L 12.741758346557617 86.01599884033202 L 12.729000091552734 85.93599700927733 L 12.515999794006348 85.51699829101561 L 12.182999610900879 85.18399810791014 L 11.763999938964844 84.9710006713867 L 11.300000190734863 84.8980026245117 L 10.836000442504883 84.9710006713867 L 10.416999816894531 85.18399810791014 L 10.083999633789062 85.51699829101561 L 9.871000289916992 85.93599700927733 L 9.858413696289062 86.01599884033202 L 9.79800033569336 86.40000152587889 L 9.871000289916992 86.86399841308592 L 10.083999633789062 87.28299713134764 L 10.416999816894531 87.61599731445311 L 10.836000442504883 87.82900238037108 M -12.710000038146973 87.9449996948242 L -12.892423629760742 88.30300140380858 L -14.414999961853027 91.29100036621092 L -15.003000259399414 94.99999999999999 L -14.414999961853027 98.70899963378903 L -12.710000038146973 102.05500030517575 L -10.055000305175781 104.70999908447263 L -6.709000110626221 106.41500091552732 L -4.302999973297119 106.79643249511716 L -3 107.00299835205075 L -1.2979999780654907 106.73317718505857 L 1.0136844434596032e-13 106.52739715576169 L 0.7089999914169312 106.41500091552732 L 4.054999828338623 104.70999908447263 L 6.710000038146973 102.05500030517575 L 8.414999961853027 98.70899963378903 L 9.003000259399414 94.99999999999999 L 8.414999961853027 91.29100036621092 L 6.892423629760742 88.30300140380858 L 6.710000038146973 87.9449996948242 L 4.054999828338623 85.29000091552733 L 0.7089999914169312 83.58499908447264 L 0 83.47279357910155 L -3 82.9980010986328 L -6.709000110626221 83.58499908447264 L -10.055000305175781 85.29000091552733 L -12.710000038146973 87.9449996948242 M -4.229000091552734 111.13600158691403 L -4.302999973297119 111.59999847412107 L -4.229000091552734 112.06400299072263 L -4.0960001945495605 112.32563018798825 L -4.015999794006348 112.48300170898435 L -3.683000087738037 112.81600189208982 L -3.2639999389648438 113.02899932861325 L -2.799999952316284 113.10299682617185 L -2.3359999656677246 113.02899932861325 L -1.9170000553131104 112.81600189208982 L -1.5839999914169312 112.48300170898435 L -1.371000051498413 112.06400299072263 L -1.2979999780654907 111.59999847412107 L -1.371000051498413 111.13600158691403 L -1.5839999914169312 110.71700286865232 L -1.7089999914169312 110.59200286865232 L -1.9170000553131104 110.38400268554685 L -2.3359999656677246 110.17099761962888 L -2.799999952316284 110.09799957275388 L -3.2639999389648438 110.17099761962888 L -3.683000087738037 110.38400268554685 L -3.8910000324249268 110.59200286865232 L -4.015999794006348 110.71700286865232 L -4.0960001945495605 110.87437438964841 L -4.229000091552734 111.13600158691403 M -39.54600143432617 13.758000373840328 L -38 14.00300025939941 L -36.45399856567383 13.758000373840328 L -35.060001373291016 13.046999931335446 L -33.952999114990234 11.939999580383299 L -33.242000579833984 10.545999526977537 L -32.99800109863281 8.999999999999998 L -33.12552261352539 8.19200038909912 L -33.242000579833984 7.453999996185301 L -33.952999114990234 6.059999942779539 L -35.060001373291016 4.95300006866455 L -36.45399856567383 4.242000102996825 L -38 3.997999906539916 L -39.54600143432617 4.242000102996825 L -40.939998626708984 4.95300006866455 L -42.047000885009766 6.059999942779539 L -42.757999420166016 7.453999996185301 L -42.87495422363281 8.19200038909912 L -43.00299835205078 8.999999999999998 L -42.757999420166016 10.545999526977537 L -42.047000885009766 11.939999580383299 L -40.939998626708984 13.046999931335446 L -39.54600143432617 13.758000373840328 M 81.49800109863281 -67.00299835205077 L 81.49800109863281 -46.998001098632805 L 83.00299835205078 -46.998001098632805 L 84.50299835205078 -46.998001098632805 L 84.50299835205078 -67.00299835205077 L 83.00299835205078 -67.00299835205077 L 81.49800109863281 -67.00299835205077 M 76.49800109863281 -67.00299835205077 L 76.49800109863281 -46.998001098632805 L 79.50299835205078 -46.998001098632805 L 79.50299835205078 -67.00299835205077 L 76.49800109863281 -67.00299835205077 M 66.49800109863281 -67.00299835205077 L 66.49800109863281 -46.998001098632805 L 69.50299835205078 -46.998001098632805 L 69.50299835205078 -67.00299835205077 L 66.49800109863281 -67.00299835205077 M 71.49800109863281 -67.00299835205077 L 71.49800109863281 -46.998001098632805 L 74.50299835205078 -46.998001098632805 L 74.50299835205078 -67.00299835205077 L 71.49800109863281 -67.00299835205077 z" fill="none" stroke="rgb(255,0,0)" stroke-width="0.001mm" />
</svg>